<svg xmlns="http://www.w3.org/2000/svg" version="1.1" xmlns:xlink="http://www.w3.org/1999/xlink" xmlns:svgjs="http://svgjs.dev/svgjs" viewBox="0 0 800 800"><defs><linearGradient x1="50%" y1="0%" x2="50%" y2="100%" id="ffflurry-grad" gradientTransform="rotate(270)"><stop stop-color="#111113" stop-opacity="1" offset="0%"></stop><stop stop-color="hsl(1.4, 100%, 67%)" stop-opacity="1" offset="45%"></stop><stop stop-color="hsl(167, 52%, 78%)" stop-opacity="1" offset="100%"></stop></linearGradient></defs><rect width="100%" height="100%" fill="#111113"></rect><g fill="url(#ffflurry-grad)"><rect width="499" height="3" x="-203.5" y="577.5" rx="1.5" transform="rotate(127, 46, 579)" opacity="0.91"></rect><rect width="238" height="3" x="-8" y="238.5" rx="1.5" transform="rotate(127, 111, 240)" opacity="0.59"></rect><rect width="122" height="3" x="129" y="108.5" rx="1.5" transform="rotate(127, 190, 110)" opacity="0.72"></rect><rect width="85" height="3" x="443.5" y="240.5" rx="1.5" transform="rotate(127, 486, 242)" opacity="0.70"></rect><rect width="124" height="3" x="686" y="263.5" rx="1.5" transform="rotate(127, 748, 265)" opacity="0.38"></rect><rect width="317" height="3" x="390.5" y="733.5" rx="1.5" transform="rotate(127, 549, 735)" opacity="0.32"></rect><rect width="230" height="3" x="502" y="352.5" rx="1.5" transform="rotate(127, 617, 354)" opacity="0.19"></rect><rect width="333" height="3" x="528.5" y="412.5" rx="1.5" transform="rotate(127, 695, 414)" opacity="0.63"></rect><rect width="58" height="3" x="132" y="327.5" rx="1.5" transform="rotate(127, 161, 329)" opacity="0.81"></rect><rect width="592" height="3" x="-127" y="752.5" rx="1.5" transform="rotate(127, 169, 754)" opacity="0.83"></rect><rect width="88" height="3" x="474" y="25.5" rx="1.5" transform="rotate(127, 518, 27)" opacity="0.40"></rect><rect width="210" height="3" x="173" y="421.5" rx="1.5" transform="rotate(127, 278, 423)" opacity="0.27"></rect><rect width="258" height="3" x="422" y="256.5" rx="1.5" transform="rotate(127, 551, 258)" opacity="0.81"></rect><rect width="46" height="3" x="206" y="22.5" rx="1.5" transform="rotate(127, 229, 24)" opacity="0.60"></rect><rect width="247" height="3" x="115.5" y="650.5" rx="1.5" transform="rotate(127, 239, 652)" opacity="0.75"></rect><rect width="343" height="3" x="387.5" y="595.5" rx="1.5" transform="rotate(127, 559, 597)" opacity="0.93"></rect><rect width="732" height="3" x="-235" y="653.5" rx="1.5" transform="rotate(127, 131, 655)" opacity="0.95"></rect><rect width="705" height="3" x="-303.5" y="349.5" rx="1.5" transform="rotate(127, 49, 351)" opacity="0.45"></rect><rect width="333" height="3" x="312.5" y="639.5" rx="1.5" transform="rotate(127, 479, 641)" opacity="0.32"></rect><rect width="218" height="3" x="244" y="89.5" rx="1.5" transform="rotate(127, 353, 91)" opacity="0.51"></rect><rect width="742" height="3" x="-70" y="549.5" rx="1.5" transform="rotate(127, 301, 551)" opacity="0.33"></rect><rect width="45" height="3" x="456.5" y="110.5" rx="1.5" transform="rotate(127, 479, 112)" opacity="0.82"></rect><rect width="49" height="3" x="26.5" y="105.5" rx="1.5" transform="rotate(127, 51, 107)" opacity="0.22"></rect><rect width="323" height="3" x="480.5" y="241.5" rx="1.5" transform="rotate(127, 642, 243)" opacity="0.77"></rect><rect width="224" height="3" x="332" y="188.5" rx="1.5" transform="rotate(127, 444, 190)" opacity="0.78"></rect><rect width="376" height="3" x="159" y="213.5" rx="1.5" transform="rotate(127, 347, 215)" opacity="0.73"></rect><rect width="566" height="3" x="-213" y="434.5" rx="1.5" transform="rotate(127, 70, 436)" opacity="0.74"></rect><rect width="566" height="3" x="-155" y="142.5" rx="1.5" transform="rotate(127, 128, 144)" opacity="0.68"></rect><rect width="396" height="3" x="-6" y="233.5" rx="1.5" transform="rotate(127, 192, 235)" opacity="0.62"></rect><rect width="81" height="3" x="665.5" y="153.5" rx="1.5" transform="rotate(127, 706, 155)" opacity="0.37"></rect><rect width="194" height="3" x="406" y="409.5" rx="1.5" transform="rotate(127, 503, 411)" opacity="0.72"></rect><rect width="361" height="3" x="219.5" y="532.5" rx="1.5" transform="rotate(127, 400, 534)" opacity="0.99"></rect><rect width="179" height="3" x="-50.5" y="247.5" rx="1.5" transform="rotate(127, 39, 249)" opacity="0.51"></rect><rect width="356" height="3" x="464" y="75.5" rx="1.5" transform="rotate(127, 642, 77)" opacity="0.65"></rect><rect width="233" height="3" x="662.5" y="298.5" rx="1.5" transform="rotate(127, 779, 300)" opacity="0.17"></rect><rect width="464" height="3" x="532" y="383.5" rx="1.5" transform="rotate(127, 764, 385)" opacity="0.66"></rect><rect width="314" height="3" x="244" y="423.5" rx="1.5" transform="rotate(127, 401, 425)" opacity="0.12"></rect><rect width="463" height="3" x="55.5" y="304.5" rx="1.5" transform="rotate(127, 287, 306)" opacity="0.19"></rect><rect width="317" height="3" x="79.5" y="158.5" rx="1.5" transform="rotate(127, 238, 160)" opacity="0.85"></rect><rect width="338" height="3" x="250" y="755.5" rx="1.5" transform="rotate(127, 419, 757)" opacity="0.99"></rect><rect width="637" height="3" x="178.5" y="510.5" rx="1.5" transform="rotate(127, 497, 512)" opacity="0.38"></rect><rect width="326" height="3" x="418" y="459.5" rx="1.5" transform="rotate(127, 581, 461)" opacity="0.37"></rect><rect width="637" height="3" x="-27.5" y="745.5" rx="1.5" transform="rotate(127, 291, 747)" opacity="0.29"></rect><rect width="300" height="3" x="-117" y="168.5" rx="1.5" transform="rotate(127, 33, 170)" opacity="0.47"></rect><rect width="325" height="3" x="209.5" y="27.5" rx="1.5" transform="rotate(127, 372, 29)" opacity="0.53"></rect><rect width="298" height="3" x="-94" y="756.5" rx="1.5" transform="rotate(127, 55, 758)" opacity="0.81"></rect><rect width="77" height="3" x="418.5" y="25.5" rx="1.5" transform="rotate(127, 457, 27)" opacity="0.38"></rect><rect width="374" height="3" x="456" y="554.5" rx="1.5" transform="rotate(127, 643, 556)" opacity="0.70"></rect><rect width="182" height="3" x="672" y="714.5" rx="1.5" transform="rotate(127, 763, 716)" opacity="0.25"></rect><rect width="353" height="3" x="4.5" y="421.5" rx="1.5" transform="rotate(127, 181, 423)" opacity="0.66"></rect><rect width="61" height="3" x="663.5" y="325.5" rx="1.5" transform="rotate(127, 694, 327)" opacity="0.86"></rect><rect width="409" height="3" x="95.5" y="123.5" rx="1.5" transform="rotate(127, 300, 125)" opacity="0.95"></rect><rect width="417" height="3" x="388.5" y="200.5" rx="1.5" transform="rotate(127, 597, 202)" opacity="0.56"></rect><rect width="232" height="3" x="572" y="635.5" rx="1.5" transform="rotate(127, 688, 637)" opacity="0.97"></rect><rect width="54" height="3" x="542" y="48.5" rx="1.5" transform="rotate(127, 569, 50)" opacity="0.40"></rect><rect width="363" height="3" x="-127.5" y="35.5" rx="1.5" transform="rotate(127, 54, 37)" opacity="0.26"></rect><rect width="518" height="3" x="263" y="331.5" rx="1.5" transform="rotate(127, 522, 333)" opacity="0.51"></rect><rect width="149" height="3" x="622.5" y="254.5" rx="1.5" transform="rotate(127, 697, 256)" opacity="0.67"></rect><rect width="415" height="3" x="215.5" y="69.5" rx="1.5" transform="rotate(127, 423, 71)" opacity="0.07"></rect><rect width="542" height="3" x="-122" y="40.5" rx="1.5" transform="rotate(127, 149, 42)" opacity="0.69"></rect><rect width="125" height="3" x="67.5" y="530.5" rx="1.5" transform="rotate(127, 130, 532)" opacity="0.32"></rect><rect width="280" height="3" x="277" y="292.5" rx="1.5" transform="rotate(127, 417, 294)" opacity="0.09"></rect><rect width="202" height="3" x="-55" y="501.5" rx="1.5" transform="rotate(127, 46, 503)" opacity="0.13"></rect><rect width="165" height="3" x="270.5" y="355.5" rx="1.5" transform="rotate(127, 353, 357)" opacity="0.20"></rect><rect width="338" height="3" x="208" y="657.5" rx="1.5" transform="rotate(127, 377, 659)" opacity="0.80"></rect><rect width="436" height="3" x="333" y="144.5" rx="1.5" transform="rotate(127, 551, 146)" opacity="0.95"></rect><rect width="142" height="3" x="316" y="144.5" rx="1.5" transform="rotate(127, 387, 146)" opacity="0.75"></rect><rect width="423" height="3" x="450.5" y="474.5" rx="1.5" transform="rotate(127, 662, 476)" opacity="0.62"></rect><rect width="415" height="3" x="549.5" y="520.5" rx="1.5" transform="rotate(127, 757, 522)" opacity="0.11"></rect><rect width="109" height="3" x="195.5" y="73.5" rx="1.5" transform="rotate(127, 250, 75)" opacity="0.68"></rect><rect width="212" height="3" x="558" y="748.5" rx="1.5" transform="rotate(127, 664, 750)" opacity="0.56"></rect><rect width="531" height="3" x="-224.5" y="666.5" rx="1.5" transform="rotate(127, 41, 668)" opacity="0.81"></rect><rect width="132" height="3" x="706" y="185.5" rx="1.5" transform="rotate(127, 772, 187)" opacity="0.39"></rect><rect width="455" height="3" x="40.5" y="227.5" rx="1.5" transform="rotate(127, 268, 229)" opacity="0.10"></rect><rect width="621" height="3" x="-105.5" y="537.5" rx="1.5" transform="rotate(127, 205, 539)" opacity="0.15"></rect><rect width="257" height="3" x="176.5" y="30.5" rx="1.5" transform="rotate(127, 305, 32)" opacity="0.33"></rect><rect width="676" height="3" x="406" y="52.5" rx="1.5" transform="rotate(127, 744, 54)" opacity="0.30"></rect></g></svg>