<svg width="100%" height="150" viewBox="0 0 480 174" fill="none" xmlns="http://www.w3.org/2000/svg"><g><path d="M353.69 63.66C354.08 76.61 354.44 89.56 354.89 102.51C355.03 106.45 358.05 107.28 361.2 107.56C363.64 107.77 364.64 108.66 363.59 111.39C355.46 111.39 347.31 111.39 339.17 111.39C331.13 111.39 323.09 111.43 315.05 111.3C313.95 111.28 312.86 110.39 311.77 109.9C312.68 109.14 313.52 107.83 314.5 107.72C317.86 107.34 318.34 105.84 317.24 102.93C316.01 99.66 315.03 96.29 314.11 92.92C313.49 90.66 312.32 89.56 309.87 89.64C305.85 89.76 301.82 89.57 297.81 89.74C296.76 89.78 295.1 90.43 294.81 91.21C292.97 96.07 291.44 101.05 289.67 106.4C291.92 106.91 293.65 107.12 295.24 107.73C296.1 108.06 296.7 109.07 297.41 109.78C296.61 110.31 295.82 111.29 295 111.31C289.22 111.46 283.44 111.47 277.67 111.35C276.83 111.33 276.01 110.37 275.18 109.84C275.88 109.14 276.56 107.86 277.28 107.84C281.56 107.73 283.41 105.08 284.74 101.56C290.14 87.31 296.24 73.28 300.72 58.76C302.61 52.63 307.53 50.83 311.34 46.42C312.14 47.86 312.93 48.89 313.34 50.06C319.36 67.27 325.36 84.48 331.28 101.73C332.5 105.29 334.47 107.42 338.48 107.7C344.85 108.14 347.42 106.74 347.64 100.38C348.13 86 348.06 71.6 348.02 57.21C348.01 53.71 345.21 52.62 342.14 51.95C341.01 51.7 340.09 50.48 339.07 49.7C340.16 49.22 341.24 48.35 342.34 48.33C347.87 48.2 353.4 48.25 358.92 48.35C359.79 48.37 360.98 48.68 361.46 49.29C367.6 57.17 373.52 65.23 379.75 73.04C384.11 78.5 388.86 83.65 393.83 89.39C394.11 88.15 394.39 87.49 394.39 86.83C394.31 77.94 394.33 69.05 394.01 60.17C393.79 54.11 392.73 53.24 386.93 51.91C385.98 51.69 385.24 50.56 384.4 49.85C385.32 49.32 386.23 48.34 387.15 48.32C393.56 48.19 399.97 48.21 406.37 48.33C407.27 48.35 408.15 49.14 409.04 49.58C408.3 50.38 407.64 51.75 406.79 51.87C402.63 52.46 400.94 54.92 400.88 58.81C400.66 74.95 400.43 91.09 400.29 107.24C400.27 109.35 400.35 111.13 397.84 112.01C395.25 112.91 394.11 111.6 392.64 109.77C380.66 94.8 368.55 79.94 356.49 65.04C356.02 64.46 355.54 63.88 355.07 63.3C354.6 63.4 354.14 63.53 353.69 63.66ZM304.5 63.93C304.24 63.88 303.98 63.82 303.71 63.77C301.45 70.45 299.19 77.12 296.81 84.17C301.85 84.17 306.14 84.17 311.12 84.17C308.81 77.11 306.65 70.52 304.5 63.93Z" fill="#074067"></path><path d="M59.82 125.2C35.25 125.31 15.94 109.54 11.8 87.95C7.66001 66.35 19.83 44.66 40.58 36.61C61.2 28.62 84.7 36.45 96.6 55.26C97.72 57.03 98.85 59.03 96.67 60.56C94.24 62.28 93 60.2 91.59 58.49C82.44 47.37 70.62 42.5 56.49 45.6C42.32 48.7 33.03 57.64 29.7 71.96C26.02 87.73 33.96 103.66 48.67 110.61C63.4 117.57 81.16 113.51 91.17 100.89C91.64 100.3 91.93 99.35 92.52 99.13C93.87 98.64 95.35 98.49 96.78 98.21C96.97 99.57 97.73 101.2 97.24 102.24C96.17 104.46 94.59 106.48 92.98 108.39C83.72 119.4 71.83 124.93 59.82 125.2Z" fill="#043E66"></path><path d="M168.45 56.49C167.74 53.97 165.93 53.09 163.47 52.72C162.57 52.58 161.83 51.4 161.02 50.7C161.8 50.12 162.58 49.05 163.37 49.04C174.65 48.93 185.95 48.51 197.19 49.12C205.3 49.56 210.35 54.11 211.65 60.12C213.2 67.27 210.27 72.68 203.42 75.34C202.54 75.68 201.68 76.06 200.12 76.72C202.17 77.42 203.55 77.85 204.91 78.35C212.05 80.96 215.78 86.08 215.83 93.32C215.89 100.68 212.13 106.36 205.11 108.87C202.19 109.92 199.04 110.81 195.98 110.87C184.22 111.1 172.45 110.96 160.58 110.96C159.69 108.88 160.44 107.76 162.77 107.58C166.04 107.33 168.15 105.8 168.54 102.38C168.8 101.59 169.28 100.8 169.29 100.01C169.34 86.4 169.34 72.8 169.29 59.19C169.29 58.28 168.74 57.39 168.45 56.49ZM181.68 90.29C181.75 90.29 181.82 90.29 181.9 90.29C181.9 93.15 181.76 96.03 181.93 98.88C182.15 102.5 182.94 105.93 187.31 106.78C192.69 107.82 196.75 106.31 198.94 102.15C201.74 96.84 201.76 91.35 198.87 86.05C196.11 80.98 191.21 80.18 186.01 80.01C182.92 79.91 181.26 80.91 181.63 84.32C181.86 86.28 181.68 88.3 181.68 90.29ZM181.71 64.5C181.7 64.5 181.69 64.5 181.68 64.5C181.68 67.25 181.53 70.01 181.76 72.74C181.84 73.75 182.59 75.22 183.42 75.55C187.64 77.26 194.53 74.75 196.57 70.79C198.86 66.35 198.66 61.78 196.12 57.55C193.66 53.46 189.54 52.56 185.03 52.69C182.81 52.76 181.78 53.8 181.73 55.87C181.66 58.76 181.71 61.63 181.71 64.5Z" fill="#043E66"></path><path d="M125.64 81.61C125.64 87.81 125.46 93.82 125.7 99.8C125.88 104.42 127.55 106.1 132.15 106.54C135.38 106.85 138.68 106.79 141.93 106.6C146.51 106.33 149.46 103.53 151.61 99.73C152.29 98.53 152.76 97.16 153.65 96.16C154.17 95.57 155.38 95.25 156.19 95.38C156.65 95.45 157.37 96.76 157.23 97.35C156.26 101.6 155.21 105.84 153.92 110.01C153.72 110.67 152.21 111.32 151.3 111.32C135.71 111.4 120.13 111.41 104.54 111.32C103.6 111.31 102.66 110.33 101.72 109.8C102.54 109.08 103.27 107.87 104.18 107.72C110.59 106.66 111.51 108.02 111.63 98.87C111.8 86.1 111.71 73.32 111.64 60.55C111.6 54.06 111.49 54.1 105.55 51.82C104.81 51.54 104.37 50.49 103.79 49.8C104.74 49.28 105.69 48.3 106.65 48.3C118.72 48.24 130.78 48.33 142.85 48.37C145.61 48.38 148.37 48.37 151.54 48.37C151.94 52.82 152.42 57.26 152.68 61.71C152.72 62.38 151.76 63.63 151.18 63.69C150.47 63.76 149.45 63 148.94 62.32C146.97 59.71 145.65 55.46 143.16 54.64C138.32 53.06 132.85 53.3 127.63 53.02C126.98 52.98 125.66 54.31 125.64 55.03C125.47 61.29 125.45 67.55 125.62 73.81C125.64 74.56 126.99 75.77 127.86 75.9C129.95 76.21 132.12 76.02 134.26 76.01C139.89 75.98 140.14 75.69 141.87 70.32C142.19 69.33 143.51 68.65 144.37 67.83C144.85 68.8 145.72 69.75 145.74 70.73C145.88 75.98 145.88 81.24 145.73 86.5C145.7 87.45 144.77 88.38 144.26 89.32C143.47 88.57 142.26 87.96 141.95 87.05C140.01 81.2 140 81.11 133.84 81.08C131.58 81.07 129.32 81.11 127.06 81.16C126.7 81.17 126.35 81.38 125.64 81.61Z" fill="#084168"></path><path d="M218.02 48.23C226.93 48.23 235.84 48.2 244.74 48.28C245.39 48.29 246.03 49.06 246.68 49.47C246.17 50.2 245.82 51.32 245.13 51.61C239.06 54.19 238.93 54.15 238.97 60.66C239.04 71.17 238.91 81.7 239.53 92.19C240.22 103.69 246.98 108.64 258.33 106.9C262.56 106.25 265.58 103.87 267.28 100.21C268.68 97.19 270.05 93.85 270.15 90.61C270.48 80.24 270.47 69.83 270.09 59.46C269.89 53.78 268.91 53.34 263.17 51.85C262.05 51.56 261.17 50.3 260.18 49.49C260.39 49.07 260.6 48.65 260.81 48.22C268.43 48.22 276.05 48.19 283.67 48.28C284.18 48.29 285.17 49.26 285.08 49.51C284.81 50.33 284.21 51.63 283.63 51.68C277.67 52.24 276.88 56.49 276.75 61.11C276.55 68.62 276.6 76.13 276.38 83.64C276.27 87.38 276.14 91.18 275.44 94.84C273.26 106.19 265.49 112.13 252.33 112.61C249.09 112.73 245.76 112.49 242.58 111.87C230.93 109.61 225.58 102.57 225.21 88.71C224.94 78.83 225.03 68.93 225.13 59.04C225.17 55 224.18 52.22 219.53 51.77C218.62 51.68 217.84 50.18 217.01 49.32C217.37 48.97 217.7 48.6 218.02 48.23Z" fill="#064067"></path><path d="M449.66 106.63C447.97 101.29 446.52 96.28 444.71 91.4C444.39 90.53 442.57 89.79 441.4 89.74C437.27 89.54 433.1 89.49 428.98 89.77C427.86 89.84 426.3 91.03 425.85 92.08C424.36 95.64 423.38 99.41 422 103.03C420.97 105.72 421.8 107.01 424.55 107.34C425.42 107.44 426.44 107.37 427.11 107.8C427.81 108.25 428.41 109.16 428.59 109.97C428.66 110.29 427.5 111.29 426.89 111.3C420.74 111.41 414.59 111.44 408.44 111.32C407.78 111.31 407.14 110.23 406.49 109.65C407.12 109.01 407.75 107.83 408.38 107.83C413.25 107.81 414.98 104.52 416.42 100.71C421.62 86.93 426.9 73.18 432.11 59.4C434.72 52.5 434.68 52.49 442.93 46.76C443.52 47.81 444.25 48.76 444.62 49.84C450.45 66.58 456.28 83.31 462 100.09C463.41 104.23 465.04 107.77 470.32 107.82C471.04 107.83 471.74 109.56 472.45 110.49C472.2 110.79 471.94 111.09 471.69 111.38C462.81 111.38 453.94 111.42 445.06 111.31C444.39 111.3 443.74 110.28 443.07 109.72C443.66 109.06 444.13 108.11 444.87 107.8C446.22 107.25 447.71 107.08 449.66 106.63ZM442.54 84.23C440.12 76.98 437.92 70.42 435.73 63.87C435.47 63.92 435.21 63.98 434.95 64.03C432.72 70.64 430.49 77.26 428.13 84.23C433.33 84.23 437.54 84.23 442.54 84.23Z" fill="#074067"></path><path d="M241.19 129.65C245.93 129.65 250.67 129.65 255.41 129.65C250.51 132.1 252.25 136.48 252.06 140.18C252.01 141.11 252.44 142.87 252.69 142.88C257 143 261.35 143.16 265.57 142.54C266.09 142.46 266.4 137.86 265.96 135.5C265.59 133.48 264.01 131.68 262.95 129.75C267.2 129.75 272.09 129.75 276.98 129.75C272.37 131.4 273.42 135.13 273.4 138.36C273.36 142.86 273.33 147.37 273.41 151.87C273.47 155.36 271.95 159.53 278.26 160.6C277.85 160.85 277.44 161.1 277.03 161.35C272.2 161.35 267.37 161.35 262.54 161.35C268.85 158.06 265.35 152.45 266.01 148C266.09 147.48 264.95 146.45 264.2 146.22C263.16 145.9 261.96 146.05 260.83 146.13C258.02 146.33 253.27 145.81 252.78 147C251.55 150.01 251.85 153.85 252.32 157.26C252.51 158.64 254.7 159.75 256.35 161.35C251.05 161.35 246.11 161.35 241.17 161.35C246.9 158.69 244.47 153.69 244.73 149.65C244.99 145.66 244.7 141.64 244.81 137.64C244.9 134.44 245.04 131.36 240.61 130.49C240.81 130.2 241 129.93 241.19 129.65ZM245.83 130.39C245.83 140.6 245.83 150.33 245.83 160.08C247.38 160.08 249.1 160.08 251.24 160.08C251.24 150.09 251.24 140.28 251.24 130.39C249.75 130.39 247.92 130.39 245.83 130.39Z" fill="#EE4241"></path><path d="M463.56 151.95C466.13 155.01 468.7 158.07 471.25 161.11C468.15 163.28 461.86 161.69 458.86 157.11C457.43 154.92 456.55 152.38 455.12 150.18C454.32 148.94 452.91 148.1 451.23 147.46C451.63 152.25 447.52 157.86 454.38 161.24C449.51 161.24 444.64 161.24 439.77 161.24C444.78 159.21 443.58 155.01 443.61 151.34C443.65 146.96 443.6 142.57 443.62 138.19C443.63 135.14 444.31 131.8 440.03 130.95C440.24 130.41 440.34 129.99 440.42 129.99C447.37 130.17 454.46 129.61 461.22 130.85C466.46 131.81 467.8 137.46 465.11 142.28L464.84 142.03C465.4 134.75 463.12 131.24 458.36 132.37C459.72 135.9 463.14 139.55 458.22 142.94C458.46 141.48 458.88 140.02 458.89 138.56C458.91 134.5 456.54 131.69 453.08 131.73C452.24 131.74 450.73 132.63 450.7 133.18C450.49 137.09 450.59 141.02 450.59 146.32C453.81 144.89 456.02 143.91 458.23 142.93C457.75 144.01 457.29 145.1 456.78 146.17C456.5 146.77 455.71 147.51 455.87 147.87C457.8 152.15 459.01 156.98 464.48 159.76C464.48 157.99 464.63 156.77 464.44 155.61C464.24 154.42 463.71 153.29 463.32 152.14C463.33 152.16 463.56 151.95 463.56 151.95Z" fill="#F03E3D"></path><path d="M77.65 27.58C63.71 27.58 50.17 27.58 36.63 27.58C37.43 22.97 47.86 16.72 55.98 16.05C63.86 15.4 75.3 21.25 77.65 27.58Z" fill="#063F66"></path><path d="M212.18 129.7C217.14 129.7 222.1 129.7 227.07 129.7C222.06 131.54 223.36 135.66 223.31 139.19C223.25 143.69 223.17 148.19 223.33 152.68C223.41 154.98 222.4 157.92 225.9 158.92C229.85 160.06 234.29 158.97 236.19 156.36C236.94 155.33 237.67 154.28 238.66 152.89C240.46 158.64 238.39 161.69 233.43 161.67C227.41 161.65 221.39 161.67 215.37 161.65C214.19 161.65 213.01 161.54 211.86 161.49C211.86 160.86 211.82 160.42 211.87 160.41C216.3 159.58 216.28 156.37 216.16 152.87C215.99 147.75 216.02 142.62 216.15 137.5C216.24 134.21 216.27 131.16 211.68 130.57C211.84 130.27 212.01 129.98 212.18 129.7Z" fill="#F13A3A"></path><path d="M392.5 129.75C397.49 129.75 402.48 129.75 407.47 129.75C402.42 131.55 403.54 135.66 403.51 139.23C403.47 143.61 403.43 147.99 403.52 152.37C403.59 155.69 402.24 159.77 408.42 160.28C408.1 160.59 407.78 160.89 407.46 161.2C402.45 161.2 397.44 161.2 392.43 161.2C398.34 159.03 396.15 154.08 396.34 150.1C396.52 146.35 396.41 142.59 396.37 138.84C396.33 135.37 397.59 131.27 391.4 130.58C391.76 130.31 392.13 130.03 392.5 129.75Z" fill="#F33737"></path><path d="M316.83 129.74C321.82 129.74 326.8 129.74 331.79 129.74C326.63 131.46 327.88 135.62 327.84 139.17C327.79 143.41 327.78 147.66 327.84 151.9C327.89 155.42 326.55 159.6 331.75 161.25C326.73 161.25 321.7 161.25 316.68 161.25C322.1 159.31 320.73 154.9 320.79 151.14C320.85 147.15 320.85 143.15 320.79 139.16C320.74 135.58 321.9 131.41 316.83 129.74Z" fill="#F23637"></path><path d="M421.6 155.03C421.67 155.52 421.75 156.01 421.82 156.49C421.82 157.71 421.82 158.92 421.82 160.03C419.66 160.03 417.35 160.03 415.26 160.03C415.26 151.44 415.28 143.1 415.22 134.77C415.21 134.01 414.65 133.26 414.34 132.5C414.13 132.25 413.92 132 413.72 131.75C416.3 129.46 420.2 129.5 422.11 131.83C421.99 134.57 421.78 137.31 421.78 140.05C421.78 144.5 423.08 145.31 427.27 143.65C427.96 143.38 428.65 143.1 429.35 142.82C432.01 144.18 432.02 145.53 429.34 146.87C426.82 146.81 424.29 146.75 421.77 146.69C419.76 149.43 420.04 152.22 421.6 155.03Z" fill="#FB2F31"></path><path d="M338.67 132.37C338.45 132.23 338.31 132.04 338.27 131.78C340.26 129.43 344.79 129.46 346.67 131.84C346.65 132.06 346.56 132.25 346.39 132.39C345.96 133.17 345.16 133.94 345.15 134.72C345.05 141.43 345.03 148.15 345.16 154.86C345.18 155.91 346.1 156.94 346.6 157.98C345.77 160.59 343.12 161.11 338.97 159.49C339.23 158.79 339.71 158.1 339.71 157.4C339.77 149.64 339.79 141.87 339.72 134.11C339.73 133.53 339.05 132.95 338.67 132.37Z" fill="#FD2A2A"></path><path d="M367.55 158.45C367.49 158.27 367.54 158.12 367.7 158C367.95 157.46 368.42 156.92 368.43 156.38C368.48 149.04 368.49 141.71 368.43 134.37C368.42 133.75 367.85 133.13 367.54 132.51V132.59C367.54 131.86 367.54 131.13 367.54 130.35C370 130.35 372.34 130.35 374.39 130.35C374.39 140.34 374.39 150.15 374.39 160.17C372.31 159.45 369.23 162.21 367.55 158.45Z" fill="#FC2A2A"></path><path d="M297.51 162.21C296.8 162.19 296.09 162.17 295.39 162.16C295.44 161.99 295.43 161.81 295.37 161.64C294.59 161.43 293.81 161.23 293.03 161.02C292.42 161.08 291.82 161.14 291.21 161.2C291.03 161.25 290.9 161.19 290.81 161.03C289.71 160.38 288.62 159.72 287.52 159.07L287.47 159.01C287.23 158.77 286.99 158.54 286.76 158.3L286.7 158.24C286.29 154.25 285.74 150.27 285.51 146.28C285.31 142.81 285.68 139.29 285.37 135.83C285.24 134.4 283.99 133.07 283.25 131.69H283.26C285.58 131.01 287.89 130.33 290.1 129.67C290.1 137.35 289.96 144.01 290.16 150.66C290.25 153.5 290.5 156.6 293.86 157.96L293.85 157.95C295.11 158.71 296.37 159.46 297.63 160.22C297.61 160.7 297.58 161.18 297.56 161.67C297.47 161.85 297.46 162.03 297.51 162.21Z" fill="#FD282B"></path><path d="M367.55 158.45C369.23 162.22 372.31 159.46 374.39 160.18C374.39 150.16 374.39 140.35 374.39 130.36C372.34 130.36 370 130.36 367.54 130.36C367.54 131.14 367.54 131.87 367.54 132.6C366.15 131.89 364.76 131.19 363.36 130.48C363.4 130.25 363.43 130.02 363.47 129.79C368.51 129.79 373.56 129.79 378.6 129.79C373.08 132.2 375.13 137.03 374.97 141.03C374.79 145.65 374.99 150.29 374.96 154.92C374.94 157.72 376.23 158.96 379.04 159.1C383.15 159.31 386.89 158.99 388.79 154.56C388.96 154.15 389.43 153.84 389.82 153.57C389.98 153.45 390.3 153.55 390.53 153.55C392.02 158.98 389.99 161.75 384.6 161.74C378.69 161.72 372.79 161.74 366.88 161.73C365.7 161.73 364.51 161.62 363.33 161.57C363.23 161.24 363.14 160.92 363.04 160.59C364.54 159.86 366.04 159.15 367.55 158.45Z" fill="#E55352"></path><path d="M297.52 161.67C297.54 161.19 297.57 160.71 297.59 160.22C298.84 159.97 300.08 159.73 301.33 159.48C301.67 159.41 302 159.33 302.34 159.26C302.74 159.04 303.14 158.82 303.54 158.6C304.75 156.33 306.77 154.14 307 151.78C307.53 146.2 307.52 140.51 307.02 134.94C306.86 133.16 304.43 131.59 302.98 129.85C306.59 129.85 310.67 129.85 314.75 129.85C309.73 132.07 310.59 136.49 310.47 140.46C310.37 143.84 310.45 147.22 310.38 150.59C310.29 154.67 308.73 158.01 305.19 160.28C304.66 160.54 304.13 160.8 303.6 161.06L303.44 161.2L303.23 161.16C302.35 161.41 301.46 161.66 300.58 161.91L300.4 162.02L300.22 161.91C299.32 161.83 298.42 161.75 297.52 161.67Z" fill="#EC423F"></path><path d="M414.34 132.5C414.65 133.26 415.21 134.01 415.22 134.77C415.28 143.1 415.26 151.44 415.26 160.03C417.35 160.03 419.67 160.03 421.82 160.03C421.82 158.93 421.82 157.71 421.82 156.49C424.24 159.84 431.15 160.16 434.04 157.03C434.87 156.13 435.66 155.2 437.34 154.56C437 156.77 436.66 158.99 436.3 161.3C427.27 161.3 418.41 161.3 409.44 161.3C409.62 160.63 409.67 160.2 409.75 160.2C415.51 159.86 414.51 155.64 414.48 152C414.43 145.51 414.38 139 414.34 132.5Z" fill="#E95351"></path><path d="M338.98 159.49C343.12 161.12 345.77 160.59 346.61 157.98C352.96 160.78 358.02 159.11 361.75 152.57C363.12 159.31 361.29 161.71 355.82 161.7C349.81 161.69 343.8 161.72 337.8 161.7C336.74 161.7 335.68 161.55 334.62 161.48C334.54 161.11 334.47 160.74 334.39 160.37C335.6 160.04 336.8 159.71 338.01 159.38C338.33 159.42 338.65 159.46 338.98 159.49Z" fill="#E5514F"></path><path d="M422.11 131.83C420.2 129.5 416.3 129.46 413.72 131.75C412.68 131.38 411.63 131.02 410.59 130.65C410.67 130.33 410.75 130.02 410.82 129.7C418.82 129.7 426.81 129.7 435.21 129.7C435.38 132.09 435.55 134.51 435.79 137.88C433.37 135.57 431.91 133.27 429.85 132.45C427.55 131.54 424.71 131.98 422.11 131.83Z" fill="#E54844"></path><path d="M293.84 157.96C290.48 156.61 290.23 153.51 290.14 150.66C289.94 144.01 290.08 137.35 290.08 129.67C287.87 130.32 285.55 131 283.24 131.69C282.19 131.34 281.14 131 280.1 130.65C280.18 130.33 280.26 130 280.34 129.68C285.26 129.68 290.18 129.68 295.1 129.68C290.36 131.75 291.43 135.76 291.42 139.31C291.41 143.06 291.19 146.85 291.59 150.56C291.86 153.08 293.06 155.5 293.84 157.96Z" fill="#E75654"></path><path d="M283.23 131.69C283.97 133.07 285.22 134.4 285.35 135.83C285.66 139.29 285.29 142.8 285.49 146.28C285.72 150.28 286.27 154.26 286.68 158.24C285.8 155.34 284.43 152.49 284.14 149.54C283.7 145.08 284.08 140.55 283.97 136.05C283.94 134.59 283.49 133.14 283.23 131.69Z" fill="#E75654"></path><path d="M346.61 157.99C346.11 156.95 345.19 155.92 345.17 154.87C345.04 148.16 345.06 141.44 345.16 134.73C345.17 133.95 345.97 133.17 346.4 132.4C346.47 140.93 346.54 149.46 346.61 157.99Z" fill="#E5514F"></path><path d="M168.45 56.49C168.74 57.39 169.29 58.28 169.29 59.18C169.34 72.79 169.34 86.39 169.29 100C169.29 100.79 168.8 101.58 168.54 102.37C168.51 87.08 168.48 71.78 168.45 56.49Z" fill="#003756"></path><path d="M429.33 146.86C432.01 145.52 432 144.17 429.34 142.81C429.76 141.61 430.18 140.42 430.6 139.22C430.94 139.28 431.29 139.34 431.63 139.39C431.63 143.04 431.63 146.69 431.63 150.35C431.37 150.43 431.1 150.52 430.84 150.6C430.34 149.36 429.83 148.11 429.33 146.86Z" fill="#E14E4D"></path><path d="M338.98 159.49C338.65 159.45 338.33 159.42 338 159.38C338.31 157.2 338.88 155.01 338.89 152.83C338.93 146.01 338.76 139.19 338.67 132.37C339.04 132.95 339.73 133.53 339.73 134.11C339.79 141.87 339.78 149.64 339.72 157.4C339.72 158.1 339.24 158.8 338.98 159.49Z" fill="#E14E4D"></path><path d="M346.68 131.84C344.79 129.46 340.26 129.42 338.28 131.78C337.05 131.42 335.83 131.07 334.6 130.71C334.66 130.39 334.72 130.07 334.79 129.76C339.82 129.76 344.85 129.76 349.88 129.76C349.97 130.04 350.06 130.32 350.15 130.6C348.99 131.01 347.83 131.43 346.68 131.84Z" fill="#E14E4D"></path><path d="M367.54 132.52C367.85 133.14 368.43 133.76 368.43 134.38C368.49 141.72 368.48 149.05 368.43 156.39C368.43 156.93 367.96 157.47 367.7 158.01C367.64 149.51 367.59 141.01 367.54 132.52Z" fill="#E54844"></path><path d="M465.13 142.29C465.1 142.41 465.1 142.6 465.02 142.64C460.46 145.11 461.44 148.44 463.56 151.95L463.33 152.16C458.41 147.71 458.75 145.45 464.86 142.04L465.13 142.29Z" fill="#F03E3D"></path><path d="M421.6 155.03C420.04 152.22 419.76 149.43 421.76 146.68C421.7 149.47 421.65 152.25 421.6 155.03Z" fill="#E95351"></path><path d="M301.34 159.49C300.09 159.74 298.85 159.98 297.6 160.23C296.34 159.47 295.08 158.71 293.83 157.96C296.33 158.46 298.84 158.98 301.34 159.49Z" fill="#E75654"></path><path d="M287.51 159.07C288.61 159.72 289.7 160.38 290.8 161.03C289.7 160.38 288.61 159.72 287.51 159.07Z" fill="#E75654"></path><path d="M293.02 161.02C293.8 161.23 294.58 161.43 295.36 161.64C294.77 161.71 294.17 161.78 293.58 161.86L293.3 161.91L293.04 161.79C293.03 161.53 293.03 161.28 293.02 161.02Z" fill="#EC423F"></path><path d="M300.58 161.92C301.46 161.67 302.35 161.42 303.23 161.17C302.35 161.42 301.47 161.67 300.58 161.92Z" fill="#E75654"></path><path d="M297.52 161.67C298.42 161.75 299.32 161.83 300.22 161.91C299.32 162.01 298.41 162.11 297.5 162.21C297.46 162.03 297.47 161.85 297.52 161.67Z" fill="#E75654"></path><path d="M303.61 161.06C304.14 160.8 304.67 160.54 305.2 160.28C304.67 160.54 304.14 160.8 303.61 161.06Z" fill="#E75654"></path><path d="M293.02 161.02C293.03 161.28 293.03 161.53 293.04 161.79C292.43 161.59 291.82 161.4 291.2 161.2C291.81 161.14 292.42 161.08 293.02 161.02Z" fill="#E75654"></path><path d="M293.58 161.86C294.17 161.79 294.77 161.72 295.36 161.64C295.43 161.81 295.43 161.98 295.38 162.16C294.78 162.06 294.18 161.96 293.58 161.86Z" fill="#E75654"></path><path d="M286.75 158.3C286.99 158.54 287.23 158.77 287.46 159.01C287.22 158.77 286.99 158.54 286.75 158.3Z" fill="#E75654"></path><path d="M303.55 158.61C303.15 158.83 302.75 159.05 302.35 159.27C302.75 159.04 303.15 158.83 303.55 158.61Z" fill="#E75654"></path><path d="M245.83 130.39C247.92 130.39 249.75 130.39 251.24 130.39C251.24 140.27 251.24 150.09 251.24 160.08C249.1 160.08 247.39 160.08 245.83 160.08C245.83 150.34 245.83 140.61 245.83 130.39Z" fill="#FE2728"></path><path d="M464.86 142.04C458.75 145.45 458.4 147.71 463.33 152.16C463.72 153.32 464.25 154.45 464.45 155.64C464.64 156.8 464.49 158.02 464.49 159.79C459.02 157.01 457.81 152.18 455.88 147.9C455.72 147.54 456.51 146.8 456.79 146.2C457.3 145.13 457.76 144.04 458.24 142.96C463.16 139.57 459.74 135.92 458.38 132.39C463.15 131.25 465.42 134.76 464.86 142.04Z" fill="#FD282B"></path></g></svg>